PathFileType	4	(X/Y/Z)	C:/Users/beibeiliu/ov580/test_trc\sequence.35_training_dense_right.trc
DataRate	CameraRate	NumFrames	NumMarkers	Units	OrigDataRate	OrigDataStartFrame	OrigNumFrames
120	120	20	19	mm	120	1	283
Frame#	Time	ThumbCMC			ThumbMCP			ThumbIP			ThumbTip			IndexMCP			IndexPIP			IndexTip			MiddleMCP			MiddlePIP			MiddleTip			RingMCP			RingPIP			RingTip			PinkyMCP			PinkyPIP			PinkyTip			BackHand1			BackHand2			BackHand3	
		X0	Y0	Z0	X1	Y1	Z1	X2	Y2	Z2	X3	Y3	Z3	X4	Y4	Z4	X5	Y5	Z5	X6	Y6	Z6	X7	Y7	Z7	X8	Y8	Z8	X9	Y9	Z9	X10	Y10	Z10	X11	Y11	Z11	X12	Y12	Z12	X13	Y13	Z13	X14	Y14	Z14	X15	Y15	Z15	X16	Y16	Z16	X17	Y17	Z17	X18	Y18	Z18	
0	0	146.036	7.21406	78.243	122.927	3.43413	59.2441	113.463	1.37558	37.1163	105.055	-0.931514	20.278	152.606	14.5222	9.69791	149.174	8.7707	-16.2392	142.766	4.73661	-34.678	177.832	10.6521	3.96931	174.517	6.56127	-19.9704	178.365	-1.67077	-45.3935	194.074	5.10393	10.9585	196.818	2.89204	-11.9606	201.377	-0.449897	-33.571	210.141	-2.44369	24.8425	218.843	-3.52152	8.98406	228.196	-1.73074	-4.0938	191.957	14.3559	54.1458	191.354	20.0878	81.1399	167.067	23.2493	67.4122	
1	0.00833333	143.641	7.14482	73.2077	126.927	1.37892	59.6972	114.924	0.74586	35.4126	102.054	-2.17891	22.7187	151.814	12.9753	9.41497	146.481	9.59644	-16.2378	145.711	1.64025	-38.3987	173.265	10.5083	4.31607	172.963	5.17422	-24.4158	176.939	-2.07568	-47.9211	191.232	5.27943	7.69539	199.792	1.16279	-9.25429	199.011	-0.661151	-33.7887	208.633	-3.29429	24.3291	218.663	-4.10283	6.78489	224.517	-2.17046	-10.3469	190.99	13.3428	53.502	191.056	18.3816	79.969	165.948	23.5506	63.8002	
2	0.0166667	142.904	6.08539	78.1795	127.359	0.766876	56.836	113.648	0.290178	36.2349	105.12	-2.04375	20.5911	152.068	12.5375	8.59862	145.775	9.73196	-12.8932	146.341	2.25083	-35.7889	173.203	9.50902	-1.33447	172.348	4.82963	-24.3243	176.941	-3.05864	-49.4511	193.734	4.17395	8.67303	195.452	1.37857	-10.2172	199.15	-1.95172	-33.001	209.179	-2.03923	22.2556	217.324	-5.32871	8.14827	223.287	-2.43944	-7.34919	191.91	13.2874	51.7688	194.234	18.5509	76.5288	168.073	23.2456	64.7949	
3	0.025	141.928	5.95929	74.9175	125.077	0.313954	59.29	114.473	-0.157864	34.3339	102.979	-3.26877	19.3862	149.779	12.234	9.95596	145.551	7.48982	-17.3314	147.19	0.978405	-37.6817	176.958	8.77625	0.466808	176.077	3.31984	-25.5365	178.978	-4.03105	-47.7591	192.405	5.28535	6.42356	197.203	1.52395	-14.6625	197.734	-2.40649	-34.3872	208.666	-2.51497	22.7545	215.202	-5.2986	8.95243	225.556	-2.45077	-11.0567	189.264	15.1612	51.2303	192.533	16.4163	78.8136	164.005	22.1689	60.9564	
4	0.0333333	140.901	6.68575	73.2034	126.304	-0.00948673	57.4635	114.34	-0.52157	35.1733	104.099	-3.68466	17.8868	151.319	12.1851	5.67297	145.535	8.95316	-14.8647	147.423	0.769807	-37.2091	172.213	10.0848	3.19514	173.72	3.25534	-25.8552	175.772	-2.18798	-47.0082	191.173	3.91135	10.7491	194.204	1.34126	-15.9956	198.023	-1.79767	-36.3808	209.395	-3.71933	25.0104	217.105	-4.23222	4.20697	225.282	-3.52715	-12.0091	189.8	14.0981	53.9745	195.416	17.9545	78.1527	169.301	21.2785	64.1455	
5	0.0416667	141.686	5.58909	71.8064	128.47	-0.996634	56.1954	116.931	-2.70181	38.4484	105.937	-4.42679	20.6588	148.506	11.5538	7.17903	149.691	7.17824	-17.3387	141.388	1.22711	-40.1794	174.861	9.40848	2.87263	176.393	4.46796	-22.6594	175.34	-1.82411	-45.5993	190.818	4.41063	6.96272	197.329	1.25494	-12.675	195.689	-2.51853	-32.7481	211.847	-3.57953	21.8389	214.669	-4.02636	7.09706	227.79	-1.60517	-11.9987	194.029	12.4407	51.0004	192.589	16.7554	75.3015	168.957	20.9597	60.0939	
6	0.05	144.139	4.48955	72.2024	125.162	-0.0763338	57.6474	112.331	-1.11965	36.0161	102.385	-4.87921	21.2139	149.999	11.694	6.65928	144.528	8.16069	-17.7683	146.713	0.920566	-39.2332	172.367	10.5201	1.29182	174.022	4.83791	-23.0844	175.945	-2.45642	-47.7371	195.14	4.57846	7.25046	198.477	1.18409	-13.0981	199.332	-2.34849	-32.8464	208.881	-3.01808	23.5669	219.468	-5.28446	5.7724	228.146	-1.95727	-12.5909	190.852	14.4358	53.6443	190.47	17.045	77.4557	166.812	20.7868	60.6796	
7	0.0583333	143.623	4.87729	76.0117	126.176	0.656776	56.7351	114.314	-0.604324	36.435	103.239	-2.83752	18.6624	148.832	13.9267	5.99166	148.262	7.94408	-19.9495	144.785	1.46175	-42.2697	175.131	10.3802	-0.755935	174.883	5.44401	-25.0735	179.316	-2.85825	-52.1005	196.327	4.66788	6.2187	200.103	1.9871	-14.8114	197.044	0.0266976	-33.6788	209.779	-2.12786	24.4717	216.347	-3.71348	7.77698	228.792	-0.419048	-9.66196	191.063	16.325	48.9296	192.078	18.3931	78.8929	165.486	22.7114	63.3906	
8	0.0666667	146.749	5.34813	70.6129	126.606	0.701773	56.9867	116.92	-0.767956	37.8148	104.281	-3.55555	20.6789	151.527	13.5534	4.53609	147.754	10.2571	-18.863	147.084	3.0925	-38.3254	176.447	11.5107	0.27493	176.37	5.40939	-27.4968	177.108	0.0145518	-46.7422	193.399	6.59754	9.60331	197.09	3.29446	-12.5181	199.596	0.56989	-36.7504	212.245	-1.59227	22.5824	216.852	-3.31989	4.35511	229.07	-2.49719	-7.68005	196.014	15.9378	50.164	195.854	17.6773	75.3767	169.649	21.4705	63.7425	
9	0.075	145.326	6.00212	75.4626	127.047	0.292649	56.0418	116.281	-0.144201	37.7296	104.567	-1.94547	18.8292	154.218	14.1579	4.50111	146.831	10.6406	-15.4033	146.171	1.41822	-40.8275	173.816	12.7065	-2.58747	176.228	6.08637	-27.454	176.447	1.08698	-48.0317	195.009	6.43877	9.20047	196.59	3.57018	-12.8318	198.395	0.847248	-35.2629	214.933	-2.11634	22.5601	218.555	-3.03861	5.03459	225.933	0.697248	-10.7446	191.416	14.0068	52.419	196.238	16.861	73.9965	172.388	22.9982	64.1677	
10	0.0833333	148.791	6.79951	71.702	126.3	2.70714	53.8994	114.448	0.29146	35.5966	106.472	-2.11259	16.7647	153.107	15.1111	7.96647	147.489	10.4306	-19.6901	150.127	3.5519	-39.12	177.382	11.9535	-1.84698	180.121	7.70547	-24.1755	179.882	-0.217412	-48.5732	197.966	6.60013	5.42679	199.478	4.1027	-13.8072	200.445	0.95873	-35.2637	216.238	-2.62742	22.2427	219.245	-2.72218	4.7024	228.997	0.962852	-14	192.867	14.801	53.7037	196.222	19.0736	77.657	172.08	21.1991	64.0626	
11	0.0916667	148.517	5.34316	75.4846	133.065	1.10418	54.6188	117.598	0.70242	31.4168	106.237	-1.65306	14.6777	152.529	14.4318	5.13492	151.189	10.2971	-19.5789	148.766	1.69943	-41.8278	176.044	12.1285	0.88526	179.853	7.11805	-26.1121	178.336	0.48568	-49.7301	198.446	6.86877	5.87226	201.752	3.16717	-13.7901	200.935	0.0237009	-37.6427	213.896	-0.927165	17.5843	222.808	-2.78204	2.17928	231.615	-1.26336	-12.2656	196.236	14.8706	48.1129	196.642	18.1238	75.6034	169.177	21.8583	59.6673	
12	0.1	147.605	6.20439	74.3116	133.31	0.883428	54.0568	120.801	-0.928858	36.084	109.562	-2.17756	18.4751	153.236	15.6196	2.78797	152.97	10.151	-19.4368	147.51	3.57557	-37.8891	177.404	12.7081	-4.25226	182.933	5.28166	-28.2464	182.798	-1.12839	-49.7136	198.686	6.97339	4.33507	204.773	2.7582	-17.2273	201.181	0.990355	-37.6606	217.961	-0.745341	18.8379	222.188	-2.44454	2.85353	230.446	-0.845318	-13.589	196.04	17.3632	49.3492	197.612	17.6323	74.5998	171.331	24.0753	63.1432	
13	0.108333	153.134	5.91242	70.9292	133.829	0.552054	53.1821	123.71	0.332527	34.0295	111.307	-2.52287	19.4014	159.087	14.4391	5.50953	156.209	10.7504	-19.2656	150.763	2.55025	-43.3895	184.171	12.178	0.478274	184.502	7.19267	-24.4153	185.443	-1.43511	-52.0764	203.535	6.32081	4.04198	200.987	3.89591	-15.1963	205.234	0.526188	-33.8687	220.062	-2.0868	22.9145	226.452	-4.02184	2.63412	230.621	-1.10928	-10.7884	197.498	15.827	52.5706	199.659	17.8771	73.6671	172.587	24.2126	63.2783	
14	0.116667	152.361	5.94885	71.2095	132.018	0.828607	55.7456	123.767	0.312966	34.3839	111.362	-1.01862	14.0119	158.133	16.0328	2.30841	157.785	9.96141	-21.2379	151.814	3.54716	-40.6431	181.167	12.1921	-1.16235	186.365	7.23643	-23.3856	185.683	-0.830118	-50.7267	205.388	5.79479	6.1791	206.209	3.622	-17.9011	206.005	0.0833184	-38.5032	219.785	-2.51265	22.5763	229.015	-3.87485	7.79796	235.918	-0.450767	-12.3502	202.178	14.4977	51.3964	199.249	18.3312	76.1611	174.689	21.921	59.7666	
15	0.125	151.642	7.46971	71.5061	134.979	1.13823	54.9322	123.265	0.581859	35.6101	114.03	-1.8246	18.0292	158.565	15.959	3.73766	155.737	10.0312	-20.7427	151.701	3.68018	-40.7052	183.325	11.3818	-2.92217	182.672	6.37944	-27.1849	184.325	0.183206	-48.9929	201.69	6.80426	5.05698	209.596	3.21843	-12.6403	209.477	-0.2152	-36.1745	221.368	-2.30004	22.3454	228.602	-4.2948	7.07958	235.508	-0.336907	-10.5329	204.528	15.5086	52.815	204.187	18.5424	74.3193	176.247	21.8042	63.6094	
16	0.133333	155.698	6.20989	72.6796	134.137	2.19586	54.7893	126.087	1.39296	32.1237	113.996	-1.45694	16.0706	159.387	15.8045	3.38173	155.183	10.9373	-18.7116	156.068	2.60128	-42.3286	183.139	12.6834	0.831912	183.787	6.7761	-23.7476	189.807	-1.49018	-47.0863	202.296	6.12391	10.112	207.395	2.59518	-15.4276	208.355	0.188519	-36.8498	221.587	-2.45016	25.2064	227.867	-4.3776	3.91162	235.75	-0.425721	-11.8857	203.071	16.216	53.8615	204.541	18.8955	78.4013	177.921	21.6023	64.9591	
17	0.141667	153.127	7.76806	72.3237	137.259	1.66706	52.3327	123.571	0.697378	36.6549	114.017	-0.954039	20.4758	162.473	15.207	3.52472	159.31	10.4364	-18.6301	156.778	2.68813	-38.9695	186.318	11.0798	-1.33519	186.665	5.61968	-26.2103	186.007	-0.558151	-48.9848	202.175	6.4453	7.10428	209.861	1.44281	-16.3734	207.2	-0.0599992	-34.0844	220.954	-1.97745	20.9684	228.952	-4.77154	4.3426	239.146	-1.12791	-7.14955	204.639	15.8647	53.8871	204.445	18.5455	80.666	175.282	22.118	65.303	
18	0.15	151.619	7.65253	77.0578	136.25	2.67353	53.8131	122.869	0.82802	38.2279	111.748	0.0331013	20.2199	159.634	15.4179	6.8759	159.136	11.1721	-15.4434	158.831	2.66149	-41.081	183.866	12.7401	-1.78232	188.044	6.92408	-21.4404	191.19	-1.63098	-48.8243	207.059	5.39965	11.5375	208.42	3.56149	-10.9344	208.906	0.395015	-34.3052	220.938	-2.33952	25.2376	228.949	-4.0884	4.38612	237.675	-2.99243	-6.10044	200.73	16.1208	52.5755	201.179	16.4845	78.6878	178.587	22.643	64.7708	
19	0.158333	152.47	7.9569	74.6797	138.93	2.81303	53.6843	126.995	0.905583	38.6735	113.39	-0.0481032	20.6353	161.202	14.2425	9.88746	158.401	10.954	-15.3845	154.419	4.06092	-36.5285	189.257	10.9704	-0.136377	188.516	5.96241	-23.1377	189.559	-1.09213	-48.9787	206.937	5.50504	7.94212	206.978	3.82779	-12.7754	209.712	-0.332812	-35.9347	219.588	-3.56019	26.2664	229.023	-5.26731	8.66544	236.489	-0.589311	-10.2523	201.097	15.5546	51.4864	204.012	17.1523	76.7614	179.982	21.9719	67.4292	
